<?xml version="1.0" encoding="UTF-8"?>
<svg xmlns="http://www.w3.org/2000/svg" viewBox="0 0 16 16" fill="currentColor" role="img">
  <path
        d="M12.667 1.333c.736 0 1.333.597 1.333 1.334v10.666c0 .737-.597 1.334-1.333 1.334H3.333C2.597 14.667 2 14.07 2 13.333V2.667c0-.737.597-1.334 1.333-1.334h9.334zm0 1.334H3.333v10.666h9.334V2.667zm-2.667 8c.368 0 .667.298.667.666 0 .369-.299.667-.667.667H4.667C4.298 12 4 11.702 4 11.333c0-.368.298-.666.667-.666H10zm1.333-2c.369 0 .667.298.667.666 0 .369-.298.667-.667.667H4.667C4.298 10 4 9.702 4 9.333c0-.368.298-.666.667-.666h6.666zm0-5.334c.369 0 .667.299.667.667v3.333c0 .369-.298.667-.667.667H4.667C4.298 8 4 7.702 4 7.333V4c0-.368.298-.667.667-.667h6.666zm-.666 1.334H5.333v2h5.334v-2z"
        transform="translate(-16 -478) translate(0 366) translate(16 110) translate(0 2)"
      />
</svg>